<mxfile host="Electron" modified="2024-05-12T16:05:30.090Z" agent="Mozilla/5.0 (Windows NT 10.0; Win64; x64) AppleWebKit/537.36 (KHTML, like Gecko) draw.io/23.1.5 Chrome/120.0.6099.109 Electron/28.1.0 Safari/537.36" etag="1tuFQZ6RjRDWcNk9M266" version="23.1.5" type="device">
  <diagram id="C5RBs43oDa-KdzZeNtuy" name="Page-1">
    <mxGraphModel dx="536" dy="1485" grid="1" gridSize="10" guides="1" tooltips="1" connect="1" arrows="1" fold="1" page="1" pageScale="1" pageWidth="827" pageHeight="1169" math="0" shadow="0">
      <root>
        <mxCell id="WIyWlLk6GJQsqaUBKTNV-0" />
        <mxCell id="WIyWlLk6GJQsqaUBKTNV-1" parent="WIyWlLk6GJQsqaUBKTNV-0" />
        <mxCell id="ToluzDvmvFKa9IZMvSqe-22" style="edgeStyle=orthogonalEdgeStyle;rounded=0;orthogonalLoop=1;jettySize=auto;html=1;entryX=0.5;entryY=0;entryDx=0;entryDy=0;endArrow=none;endFill=0;" parent="WIyWlLk6GJQsqaUBKTNV-1" source="ToluzDvmvFKa9IZMvSqe-1" target="ToluzDvmvFKa9IZMvSqe-20" edge="1">
          <mxGeometry relative="1" as="geometry" />
        </mxCell>
        <mxCell id="ToluzDvmvFKa9IZMvSqe-1" value="&lt;font style=&quot;font-size: 12px;&quot;&gt;&lt;span style=&quot;&quot;&gt;AM(31:15):=A(14:0)&lt;/span&gt;&lt;/font&gt;&lt;div style=&quot;border-color: var(--border-color);&quot;&gt;&lt;span style=&quot;border-color: var(--border-color);&quot;&gt;&lt;font style=&quot;font-size: 12px;&quot;&gt;&lt;span&gt;AM(14:0):=0&lt;/span&gt;&lt;/font&gt;&lt;/span&gt;&lt;/div&gt;" style="rounded=0;whiteSpace=wrap;html=1;fontStyle=0" parent="WIyWlLk6GJQsqaUBKTNV-1" vertex="1">
          <mxGeometry x="270" y="90" width="140" height="40" as="geometry" />
        </mxCell>
        <mxCell id="ToluzDvmvFKa9IZMvSqe-2" value="&lt;span style=&quot;text-align: center; background-color: initial; border-color: var(--border-color);&quot;&gt;BM(31:15):=B(14:0)&lt;/span&gt;&lt;br&gt;&lt;div style=&quot;border-color: var(--border-color); text-align: center;&quot;&gt;&lt;span style=&quot;border-color: var(--border-color);&quot;&gt;&lt;font style=&quot;border-color: var(--border-color);&quot;&gt;&lt;span style=&quot;border-color: var(--border-color);&quot;&gt;BM(14:0):=0&lt;/span&gt;&lt;/font&gt;&lt;/span&gt;&lt;/div&gt;&lt;div style=&quot;border-color: var(--border-color); text-align: center;&quot;&gt;&lt;span style=&quot;border-color: var(--border-color);&quot;&gt;&lt;font style=&quot;border-color: var(--border-color);&quot;&gt;&lt;span style=&quot;border-color: var(--border-color);&quot;&gt;ПП:=0&lt;/span&gt;&lt;/font&gt;&lt;/span&gt;&lt;/div&gt;" style="strokeWidth=2;html=1;shape=mxgraph.flowchart.annotation_2;align=left;labelPosition=right;pointerEvents=1;fontStyle=0" parent="WIyWlLk6GJQsqaUBKTNV-1" vertex="1">
          <mxGeometry x="410" y="85" width="50" height="50" as="geometry" />
        </mxCell>
        <mxCell id="ToluzDvmvFKa9IZMvSqe-7" style="edgeStyle=orthogonalEdgeStyle;rounded=0;orthogonalLoop=1;jettySize=auto;html=1;entryX=0.5;entryY=0;entryDx=0;entryDy=0;endArrow=none;endFill=0;fontStyle=0;exitX=0.5;exitY=1;exitDx=0;exitDy=0;" parent="WIyWlLk6GJQsqaUBKTNV-1" source="ToluzDvmvFKa9IZMvSqe-4" target="ToluzDvmvFKa9IZMvSqe-1" edge="1">
          <mxGeometry relative="1" as="geometry">
            <Array as="points">
              <mxPoint x="340" y="80" />
              <mxPoint x="340" y="80" />
            </Array>
          </mxGeometry>
        </mxCell>
        <mxCell id="ToluzDvmvFKa9IZMvSqe-17" style="edgeStyle=elbowEdgeStyle;rounded=0;orthogonalLoop=1;jettySize=auto;html=1;exitX=0;exitY=0.5;exitDx=0;exitDy=0;" parent="WIyWlLk6GJQsqaUBKTNV-1" source="ToluzDvmvFKa9IZMvSqe-4" edge="1">
          <mxGeometry relative="1" as="geometry">
            <mxPoint x="340" y="30" as="targetPoint" />
            <Array as="points">
              <mxPoint x="250" y="30" />
            </Array>
          </mxGeometry>
        </mxCell>
        <mxCell id="ToluzDvmvFKa9IZMvSqe-4" value="RUN" style="rhombus;whiteSpace=wrap;html=1;fontStyle=0" parent="WIyWlLk6GJQsqaUBKTNV-1" vertex="1">
          <mxGeometry x="270" y="38" width="140" height="40" as="geometry" />
        </mxCell>
        <mxCell id="ToluzDvmvFKa9IZMvSqe-8" value="" style="endArrow=none;html=1;rounded=0;" parent="WIyWlLk6GJQsqaUBKTNV-1" edge="1">
          <mxGeometry width="50" height="50" relative="1" as="geometry">
            <mxPoint x="280" y="10" as="sourcePoint" />
            <mxPoint x="400" y="10" as="targetPoint" />
          </mxGeometry>
        </mxCell>
        <mxCell id="ToluzDvmvFKa9IZMvSqe-9" value="" style="endArrow=none;html=1;rounded=0;" parent="WIyWlLk6GJQsqaUBKTNV-1" edge="1">
          <mxGeometry width="50" height="50" relative="1" as="geometry">
            <mxPoint x="280" y="-10" as="sourcePoint" />
            <mxPoint x="400" y="-10" as="targetPoint" />
          </mxGeometry>
        </mxCell>
        <mxCell id="ToluzDvmvFKa9IZMvSqe-11" value="" style="endArrow=none;html=1;rounded=0;edgeStyle=orthogonalEdgeStyle;curved=1;" parent="WIyWlLk6GJQsqaUBKTNV-1" edge="1">
          <mxGeometry width="50" height="50" relative="1" as="geometry">
            <mxPoint x="400" y="10.000000000000007" as="sourcePoint" />
            <mxPoint x="400" y="-9.999999999999993" as="targetPoint" />
            <Array as="points">
              <mxPoint x="410" y="10.000000000000007" />
              <mxPoint x="410" y="-9.999999999999993" />
            </Array>
          </mxGeometry>
        </mxCell>
        <mxCell id="ToluzDvmvFKa9IZMvSqe-13" value="" style="endArrow=none;html=1;rounded=0;edgeStyle=orthogonalEdgeStyle;curved=1;" parent="WIyWlLk6GJQsqaUBKTNV-1" edge="1">
          <mxGeometry width="50" height="50" relative="1" as="geometry">
            <mxPoint x="280" y="10.000000000000007" as="sourcePoint" />
            <mxPoint x="280" y="-9.999999999999993" as="targetPoint" />
            <Array as="points">
              <mxPoint x="270" y="10.000000000000007" />
              <mxPoint x="270" y="-9.999999999999993" />
            </Array>
          </mxGeometry>
        </mxCell>
        <mxCell id="ToluzDvmvFKa9IZMvSqe-14" value="начало" style="text;html=1;align=center;verticalAlign=middle;resizable=0;points=[];autosize=1;strokeColor=none;fillColor=none;" parent="WIyWlLk6GJQsqaUBKTNV-1" vertex="1">
          <mxGeometry x="310" y="-16" width="60" height="30" as="geometry" />
        </mxCell>
        <mxCell id="ToluzDvmvFKa9IZMvSqe-16" value="" style="endArrow=none;html=1;rounded=0;exitX=0.5;exitY=0;exitDx=0;exitDy=0;" parent="WIyWlLk6GJQsqaUBKTNV-1" source="ToluzDvmvFKa9IZMvSqe-4" edge="1">
          <mxGeometry width="50" height="50" relative="1" as="geometry">
            <mxPoint x="350" y="30" as="sourcePoint" />
            <mxPoint x="340" y="10" as="targetPoint" />
          </mxGeometry>
        </mxCell>
        <mxCell id="ToluzDvmvFKa9IZMvSqe-18" value="0" style="text;html=1;align=center;verticalAlign=middle;whiteSpace=wrap;rounded=0;" parent="WIyWlLk6GJQsqaUBKTNV-1" vertex="1">
          <mxGeometry x="242" y="35" width="60" height="30" as="geometry" />
        </mxCell>
        <mxCell id="ToluzDvmvFKa9IZMvSqe-19" value="1" style="text;html=1;align=center;verticalAlign=middle;whiteSpace=wrap;rounded=0;" parent="WIyWlLk6GJQsqaUBKTNV-1" vertex="1">
          <mxGeometry x="319" y="67" width="60" height="30" as="geometry" />
        </mxCell>
        <mxCell id="ToluzDvmvFKa9IZMvSqe-20" value="ВМ = 0" style="rhombus;whiteSpace=wrap;html=1;fontStyle=0" parent="WIyWlLk6GJQsqaUBKTNV-1" vertex="1">
          <mxGeometry x="270" y="150" width="140" height="40" as="geometry" />
        </mxCell>
        <mxCell id="ToluzDvmvFKa9IZMvSqe-26" style="edgeStyle=orthogonalEdgeStyle;rounded=0;orthogonalLoop=1;jettySize=auto;html=1;entryX=0.5;entryY=0;entryDx=0;entryDy=0;endArrow=none;endFill=0;" parent="WIyWlLk6GJQsqaUBKTNV-1" source="ToluzDvmvFKa9IZMvSqe-21" target="ToluzDvmvFKa9IZMvSqe-25" edge="1">
          <mxGeometry relative="1" as="geometry" />
        </mxCell>
        <mxCell id="ToluzDvmvFKa9IZMvSqe-86" style="edgeStyle=orthogonalEdgeStyle;rounded=0;orthogonalLoop=1;jettySize=auto;html=1;entryX=0.5;entryY=0;entryDx=0;entryDy=0;" parent="WIyWlLk6GJQsqaUBKTNV-1" source="ToluzDvmvFKa9IZMvSqe-21" target="ToluzDvmvFKa9IZMvSqe-85" edge="1">
          <mxGeometry relative="1" as="geometry" />
        </mxCell>
        <mxCell id="ToluzDvmvFKa9IZMvSqe-21" value="АМ = 0" style="rhombus;whiteSpace=wrap;html=1;fontStyle=0" parent="WIyWlLk6GJQsqaUBKTNV-1" vertex="1">
          <mxGeometry x="270" y="207" width="140" height="40" as="geometry" />
        </mxCell>
        <mxCell id="ToluzDvmvFKa9IZMvSqe-23" style="edgeStyle=orthogonalEdgeStyle;rounded=0;orthogonalLoop=1;jettySize=auto;html=1;entryX=0.5;entryY=0;entryDx=0;entryDy=0;endArrow=none;endFill=0;exitX=0.5;exitY=1;exitDx=0;exitDy=0;" parent="WIyWlLk6GJQsqaUBKTNV-1" source="ToluzDvmvFKa9IZMvSqe-20" target="ToluzDvmvFKa9IZMvSqe-21" edge="1">
          <mxGeometry relative="1" as="geometry">
            <mxPoint x="320" y="220" as="sourcePoint" />
            <mxPoint x="320" y="240" as="targetPoint" />
          </mxGeometry>
        </mxCell>
        <mxCell id="ToluzDvmvFKa9IZMvSqe-24" value="0" style="text;html=1;align=center;verticalAlign=middle;whiteSpace=wrap;rounded=0;" parent="WIyWlLk6GJQsqaUBKTNV-1" vertex="1">
          <mxGeometry x="303" y="182" width="60" height="30" as="geometry" />
        </mxCell>
        <mxCell id="ToluzDvmvFKa9IZMvSqe-29" style="edgeStyle=orthogonalEdgeStyle;rounded=0;orthogonalLoop=1;jettySize=auto;html=1;entryX=0.5;entryY=0;entryDx=0;entryDy=0;endArrow=none;endFill=0;" parent="WIyWlLk6GJQsqaUBKTNV-1" source="ToluzDvmvFKa9IZMvSqe-25" target="ToluzDvmvFKa9IZMvSqe-28" edge="1">
          <mxGeometry relative="1" as="geometry" />
        </mxCell>
        <mxCell id="ToluzDvmvFKa9IZMvSqe-25" value="AM:=AM+11.&lt;font style=&quot;font-size: 12px;&quot;&gt;&lt;span style=&quot;border-color: var(--border-color); color: rgb(51, 51, 51); font-family: &amp;quot;YS Text&amp;quot;, -apple-system, BlinkMacSystemFont, Arial, Helvetica, sans-serif; text-align: start; background-color: rgb(255, 255, 255);&quot;&gt;&lt;span style=&quot;border-color: var(--border-color);&quot;&gt;¬&lt;/span&gt;&lt;/span&gt;&lt;span style=&quot;border-color: var(--border-color);&quot;&gt;BM(29.0)+1&lt;/span&gt;&lt;/font&gt;" style="rounded=0;whiteSpace=wrap;html=1;fontStyle=0" parent="WIyWlLk6GJQsqaUBKTNV-1" vertex="1">
          <mxGeometry x="270" y="280" width="140" height="40" as="geometry" />
        </mxCell>
        <mxCell id="ToluzDvmvFKa9IZMvSqe-27" value="0" style="text;html=1;align=center;verticalAlign=middle;whiteSpace=wrap;rounded=0;" parent="WIyWlLk6GJQsqaUBKTNV-1" vertex="1">
          <mxGeometry x="303" y="238" width="60" height="30" as="geometry" />
        </mxCell>
        <mxCell id="ToluzDvmvFKa9IZMvSqe-33" style="edgeStyle=orthogonalEdgeStyle;rounded=0;orthogonalLoop=1;jettySize=auto;html=1;entryX=0.5;entryY=0;entryDx=0;entryDy=0;endArrow=none;endFill=0;" parent="WIyWlLk6GJQsqaUBKTNV-1" source="ToluzDvmvFKa9IZMvSqe-28" target="ToluzDvmvFKa9IZMvSqe-30" edge="1">
          <mxGeometry relative="1" as="geometry" />
        </mxCell>
        <mxCell id="ToluzDvmvFKa9IZMvSqe-83" style="edgeStyle=orthogonalEdgeStyle;rounded=0;orthogonalLoop=1;jettySize=auto;html=1;" parent="WIyWlLk6GJQsqaUBKTNV-1" source="ToluzDvmvFKa9IZMvSqe-28" edge="1">
          <mxGeometry relative="1" as="geometry">
            <mxPoint x="560" y="370" as="targetPoint" />
          </mxGeometry>
        </mxCell>
        <mxCell id="ToluzDvmvFKa9IZMvSqe-28" value="АМ(31)" style="rhombus;whiteSpace=wrap;html=1;fontStyle=0" parent="WIyWlLk6GJQsqaUBKTNV-1" vertex="1">
          <mxGeometry x="270" y="350" width="140" height="40" as="geometry" />
        </mxCell>
        <mxCell id="ToluzDvmvFKa9IZMvSqe-36" style="edgeStyle=orthogonalEdgeStyle;rounded=0;orthogonalLoop=1;jettySize=auto;html=1;entryX=0.5;entryY=0;entryDx=0;entryDy=0;endArrow=none;endFill=0;" parent="WIyWlLk6GJQsqaUBKTNV-1" source="ToluzDvmvFKa9IZMvSqe-30" target="ToluzDvmvFKa9IZMvSqe-31" edge="1">
          <mxGeometry relative="1" as="geometry" />
        </mxCell>
        <mxCell id="ToluzDvmvFKa9IZMvSqe-30" value="AM:=AM+BM(29:0)" style="rounded=0;whiteSpace=wrap;html=1;fontStyle=0" parent="WIyWlLk6GJQsqaUBKTNV-1" vertex="1">
          <mxGeometry x="270" y="420" width="140" height="40" as="geometry" />
        </mxCell>
        <mxCell id="ToluzDvmvFKa9IZMvSqe-38" style="edgeStyle=orthogonalEdgeStyle;rounded=0;orthogonalLoop=1;jettySize=auto;html=1;entryX=0.5;entryY=0;entryDx=0;entryDy=0;endArrow=none;endFill=0;" parent="WIyWlLk6GJQsqaUBKTNV-1" source="ToluzDvmvFKa9IZMvSqe-31" target="ToluzDvmvFKa9IZMvSqe-37" edge="1">
          <mxGeometry relative="1" as="geometry" />
        </mxCell>
        <mxCell id="ToluzDvmvFKa9IZMvSqe-31" value="&lt;font style=&quot;font-size: 12px;&quot;&gt;C:=0&lt;/font&gt;&lt;div style=&quot;border-color: var(--border-color);&quot;&gt;&lt;font style=&quot;font-size: 12px;&quot;&gt;D:=AM&lt;/font&gt;&lt;/div&gt;" style="rounded=0;whiteSpace=wrap;html=1;fontStyle=0" parent="WIyWlLk6GJQsqaUBKTNV-1" vertex="1">
          <mxGeometry x="270" y="490" width="140" height="40" as="geometry" />
        </mxCell>
        <mxCell id="ToluzDvmvFKa9IZMvSqe-32" value="&lt;div style=&quot;border-color: var(--border-color); text-align: center;&quot;&gt;&lt;font style=&quot;border-color: var(--border-color);&quot;&gt;BM:=R1(0.BM)&lt;/font&gt;&lt;/div&gt;&lt;div style=&quot;border-color: var(--border-color); text-align: center;&quot;&gt;&lt;font style=&quot;border-color: var(--border-color);&quot;&gt;СЧ:=0&lt;/font&gt;&lt;/div&gt;" style="strokeWidth=2;html=1;shape=mxgraph.flowchart.annotation_2;align=left;labelPosition=right;pointerEvents=1;fontStyle=0" parent="WIyWlLk6GJQsqaUBKTNV-1" vertex="1">
          <mxGeometry x="410" y="492.5" width="50" height="35" as="geometry" />
        </mxCell>
        <mxCell id="ToluzDvmvFKa9IZMvSqe-34" value="1" style="text;html=1;align=center;verticalAlign=middle;whiteSpace=wrap;rounded=0;" parent="WIyWlLk6GJQsqaUBKTNV-1" vertex="1">
          <mxGeometry x="305" y="382" width="60" height="30" as="geometry" />
        </mxCell>
        <mxCell id="ToluzDvmvFKa9IZMvSqe-35" value="0" style="text;html=1;align=center;verticalAlign=middle;whiteSpace=wrap;rounded=0;" parent="WIyWlLk6GJQsqaUBKTNV-1" vertex="1">
          <mxGeometry x="382" y="343" width="40" height="18" as="geometry" />
        </mxCell>
        <mxCell id="ToluzDvmvFKa9IZMvSqe-40" style="edgeStyle=orthogonalEdgeStyle;rounded=0;orthogonalLoop=1;jettySize=auto;html=1;entryX=0.5;entryY=0;entryDx=0;entryDy=0;endArrow=none;endFill=0;" parent="WIyWlLk6GJQsqaUBKTNV-1" source="ToluzDvmvFKa9IZMvSqe-37" target="ToluzDvmvFKa9IZMvSqe-39" edge="1">
          <mxGeometry relative="1" as="geometry" />
        </mxCell>
        <mxCell id="ToluzDvmvFKa9IZMvSqe-37" value="AM:=AM+11.&lt;font style=&quot;border-color: var(--border-color);&quot;&gt;&lt;span style=&quot;border-color: var(--border-color); color: rgb(51, 51, 51); font-family: &amp;quot;YS Text&amp;quot;, -apple-system, BlinkMacSystemFont, Arial, Helvetica, sans-serif; text-align: start; background-color: rgb(255, 255, 255);&quot;&gt;&lt;/span&gt;&lt;span style=&quot;border-color: var(--border-color);&quot;&gt;BM(29.0)+1&lt;/span&gt;&lt;/font&gt;" style="rounded=0;whiteSpace=wrap;html=1;fontStyle=0" parent="WIyWlLk6GJQsqaUBKTNV-1" vertex="1">
          <mxGeometry x="270" y="565" width="140" height="40" as="geometry" />
        </mxCell>
        <mxCell id="ToluzDvmvFKa9IZMvSqe-43" style="edgeStyle=orthogonalEdgeStyle;rounded=0;orthogonalLoop=1;jettySize=auto;html=1;entryX=0.5;entryY=0;entryDx=0;entryDy=0;endArrow=none;endFill=0;" parent="WIyWlLk6GJQsqaUBKTNV-1" source="ToluzDvmvFKa9IZMvSqe-39" target="ToluzDvmvFKa9IZMvSqe-41" edge="1">
          <mxGeometry relative="1" as="geometry" />
        </mxCell>
        <mxCell id="ToluzDvmvFKa9IZMvSqe-44" style="edgeStyle=orthogonalEdgeStyle;rounded=0;orthogonalLoop=1;jettySize=auto;html=1;entryX=0.5;entryY=0;entryDx=0;entryDy=0;" parent="WIyWlLk6GJQsqaUBKTNV-1" source="ToluzDvmvFKa9IZMvSqe-39" target="ToluzDvmvFKa9IZMvSqe-42" edge="1">
          <mxGeometry relative="1" as="geometry">
            <Array as="points">
              <mxPoint x="420" y="650" />
              <mxPoint x="420" y="750" />
              <mxPoint x="340" y="750" />
            </Array>
          </mxGeometry>
        </mxCell>
        <mxCell id="ToluzDvmvFKa9IZMvSqe-39" value="АМ(31)" style="rhombus;whiteSpace=wrap;html=1;fontStyle=0" parent="WIyWlLk6GJQsqaUBKTNV-1" vertex="1">
          <mxGeometry x="270" y="630" width="140" height="40" as="geometry" />
        </mxCell>
        <mxCell id="ToluzDvmvFKa9IZMvSqe-48" style="edgeStyle=orthogonalEdgeStyle;rounded=0;orthogonalLoop=1;jettySize=auto;html=1;exitX=0.5;exitY=1;exitDx=0;exitDy=0;" parent="WIyWlLk6GJQsqaUBKTNV-1" source="ToluzDvmvFKa9IZMvSqe-41" edge="1">
          <mxGeometry relative="1" as="geometry">
            <mxPoint x="340" y="820" as="targetPoint" />
            <Array as="points">
              <mxPoint x="340" y="740" />
              <mxPoint x="260" y="740" />
              <mxPoint x="260" y="820" />
            </Array>
          </mxGeometry>
        </mxCell>
        <mxCell id="ToluzDvmvFKa9IZMvSqe-41" value="C:=L1(C.1)" style="rounded=0;whiteSpace=wrap;html=1;fontStyle=0" parent="WIyWlLk6GJQsqaUBKTNV-1" vertex="1">
          <mxGeometry x="270" y="690" width="140" height="40" as="geometry" />
        </mxCell>
        <mxCell id="ToluzDvmvFKa9IZMvSqe-47" style="edgeStyle=orthogonalEdgeStyle;rounded=0;orthogonalLoop=1;jettySize=auto;html=1;entryX=0.5;entryY=0;entryDx=0;entryDy=0;endArrow=none;endFill=0;" parent="WIyWlLk6GJQsqaUBKTNV-1" source="ToluzDvmvFKa9IZMvSqe-42" target="ToluzDvmvFKa9IZMvSqe-45" edge="1">
          <mxGeometry relative="1" as="geometry" />
        </mxCell>
        <mxCell id="ToluzDvmvFKa9IZMvSqe-42" value="&lt;font style=&quot;font-size: 12px;&quot;&gt;C:=L1(C.0)&lt;/font&gt;&lt;div style=&quot;border-color: var(--border-color);&quot;&gt;&lt;font style=&quot;font-size: 12px;&quot;&gt;AM:=D&lt;/font&gt;&lt;/div&gt;" style="rounded=0;whiteSpace=wrap;html=1;fontStyle=0" parent="WIyWlLk6GJQsqaUBKTNV-1" vertex="1">
          <mxGeometry x="270" y="770" width="140" height="40" as="geometry" />
        </mxCell>
        <mxCell id="ToluzDvmvFKa9IZMvSqe-50" style="edgeStyle=orthogonalEdgeStyle;rounded=0;orthogonalLoop=1;jettySize=auto;html=1;entryX=0.5;entryY=0;entryDx=0;entryDy=0;endArrow=none;endFill=0;" parent="WIyWlLk6GJQsqaUBKTNV-1" source="ToluzDvmvFKa9IZMvSqe-45" target="ToluzDvmvFKa9IZMvSqe-49" edge="1">
          <mxGeometry relative="1" as="geometry" />
        </mxCell>
        <mxCell id="ToluzDvmvFKa9IZMvSqe-45" value="&lt;font style=&quot;font-size: 12px;&quot;&gt;D:=AM&lt;/font&gt;&lt;div style=&quot;border-color: var(--border-color);&quot;&gt;&lt;font style=&quot;font-size: 12px;&quot;&gt;BM:=R1(0.BM)&lt;/font&gt;&lt;/div&gt;&lt;div style=&quot;border-color: var(--border-color);&quot;&gt;&lt;font style=&quot;font-size: 12px;&quot;&gt;СЧ:=СЧ-1&lt;/font&gt;&lt;/div&gt;" style="rounded=0;whiteSpace=wrap;html=1;fontStyle=0" parent="WIyWlLk6GJQsqaUBKTNV-1" vertex="1">
          <mxGeometry x="270" y="840" width="140" height="40" as="geometry" />
        </mxCell>
        <mxCell id="ToluzDvmvFKa9IZMvSqe-51" style="edgeStyle=orthogonalEdgeStyle;rounded=0;orthogonalLoop=1;jettySize=auto;html=1;" parent="WIyWlLk6GJQsqaUBKTNV-1" source="ToluzDvmvFKa9IZMvSqe-49" edge="1">
          <mxGeometry relative="1" as="geometry">
            <mxPoint x="340" y="550" as="targetPoint" />
            <Array as="points">
              <mxPoint x="210" y="930" />
              <mxPoint x="210" y="550" />
              <mxPoint x="340" y="550" />
            </Array>
          </mxGeometry>
        </mxCell>
        <mxCell id="ToluzDvmvFKa9IZMvSqe-55" style="edgeStyle=orthogonalEdgeStyle;rounded=0;orthogonalLoop=1;jettySize=auto;html=1;entryX=0.5;entryY=0;entryDx=0;entryDy=0;endArrow=none;endFill=0;" parent="WIyWlLk6GJQsqaUBKTNV-1" source="ToluzDvmvFKa9IZMvSqe-49" target="ToluzDvmvFKa9IZMvSqe-54" edge="1">
          <mxGeometry relative="1" as="geometry" />
        </mxCell>
        <mxCell id="ToluzDvmvFKa9IZMvSqe-49" value="CЧ = 0" style="rhombus;whiteSpace=wrap;html=1;fontStyle=0" parent="WIyWlLk6GJQsqaUBKTNV-1" vertex="1">
          <mxGeometry x="270" y="910" width="140" height="40" as="geometry" />
        </mxCell>
        <mxCell id="ToluzDvmvFKa9IZMvSqe-52" value="1" style="text;html=1;align=center;verticalAlign=middle;whiteSpace=wrap;rounded=0;" parent="WIyWlLk6GJQsqaUBKTNV-1" vertex="1">
          <mxGeometry x="379" y="628" width="60" height="30" as="geometry" />
        </mxCell>
        <mxCell id="ToluzDvmvFKa9IZMvSqe-53" value="0" style="text;html=1;align=center;verticalAlign=middle;whiteSpace=wrap;rounded=0;" parent="WIyWlLk6GJQsqaUBKTNV-1" vertex="1">
          <mxGeometry x="302" y="660" width="60" height="30" as="geometry" />
        </mxCell>
        <mxCell id="ToluzDvmvFKa9IZMvSqe-57" style="edgeStyle=orthogonalEdgeStyle;rounded=0;orthogonalLoop=1;jettySize=auto;html=1;entryX=0.5;entryY=0;entryDx=0;entryDy=0;endArrow=none;endFill=0;" parent="WIyWlLk6GJQsqaUBKTNV-1" source="ToluzDvmvFKa9IZMvSqe-54" target="ToluzDvmvFKa9IZMvSqe-56" edge="1">
          <mxGeometry relative="1" as="geometry" />
        </mxCell>
        <mxCell id="ToluzDvmvFKa9IZMvSqe-61" style="edgeStyle=orthogonalEdgeStyle;rounded=0;orthogonalLoop=1;jettySize=auto;html=1;" parent="WIyWlLk6GJQsqaUBKTNV-1" source="ToluzDvmvFKa9IZMvSqe-54" edge="1">
          <mxGeometry relative="1" as="geometry">
            <mxPoint x="340" y="1110" as="targetPoint" />
            <Array as="points">
              <mxPoint x="250" y="1000" />
              <mxPoint x="250" y="1110" />
              <mxPoint x="340" y="1110" />
            </Array>
          </mxGeometry>
        </mxCell>
        <mxCell id="ToluzDvmvFKa9IZMvSqe-54" value="С(0)" style="rhombus;whiteSpace=wrap;html=1;fontStyle=0" parent="WIyWlLk6GJQsqaUBKTNV-1" vertex="1">
          <mxGeometry x="270" y="980" width="140" height="40" as="geometry" />
        </mxCell>
        <mxCell id="ToluzDvmvFKa9IZMvSqe-56" value="С(16:1):=С(16:1)+1" style="rounded=0;whiteSpace=wrap;html=1;fontStyle=0" parent="WIyWlLk6GJQsqaUBKTNV-1" vertex="1">
          <mxGeometry x="270" y="1040" width="140" height="40" as="geometry" />
        </mxCell>
        <mxCell id="ToluzDvmvFKa9IZMvSqe-63" style="edgeStyle=orthogonalEdgeStyle;rounded=0;orthogonalLoop=1;jettySize=auto;html=1;entryX=0.5;entryY=0;entryDx=0;entryDy=0;endArrow=none;endFill=0;" parent="WIyWlLk6GJQsqaUBKTNV-1" source="ToluzDvmvFKa9IZMvSqe-58" target="ToluzDvmvFKa9IZMvSqe-60" edge="1">
          <mxGeometry relative="1" as="geometry" />
        </mxCell>
        <mxCell id="ToluzDvmvFKa9IZMvSqe-64" style="edgeStyle=orthogonalEdgeStyle;rounded=0;orthogonalLoop=1;jettySize=auto;html=1;" parent="WIyWlLk6GJQsqaUBKTNV-1" source="ToluzDvmvFKa9IZMvSqe-58" edge="1">
          <mxGeometry relative="1" as="geometry">
            <mxPoint x="340" y="1240" as="targetPoint" />
            <Array as="points">
              <mxPoint x="250" y="1140" />
              <mxPoint x="250" y="1240" />
              <mxPoint x="340" y="1240" />
            </Array>
          </mxGeometry>
        </mxCell>
        <mxCell id="ToluzDvmvFKa9IZMvSqe-58" value="&lt;font style=&quot;font-size: 12px;&quot;&gt;A(15)&lt;span style=&quot;border-color: var(--border-color); font-family: &amp;quot;YS Text&amp;quot;, -apple-system, BlinkMacSystemFont, Arial, Helvetica, sans-serif; text-align: start; background-color: rgb(255, 255, 255);&quot;&gt;&lt;font style=&quot;border-color: var(--border-color); font-size: 12px;&quot;&gt;⊕&lt;/font&gt;&lt;/span&gt;B(15)&lt;/font&gt;" style="rhombus;whiteSpace=wrap;html=1;fontStyle=0" parent="WIyWlLk6GJQsqaUBKTNV-1" vertex="1">
          <mxGeometry x="270" y="1120" width="140" height="40" as="geometry" />
        </mxCell>
        <mxCell id="ToluzDvmvFKa9IZMvSqe-59" style="edgeStyle=orthogonalEdgeStyle;rounded=0;orthogonalLoop=1;jettySize=auto;html=1;entryX=0.5;entryY=1;entryDx=0;entryDy=0;endArrow=none;endFill=0;exitX=0.5;exitY=0;exitDx=0;exitDy=0;" parent="WIyWlLk6GJQsqaUBKTNV-1" source="ToluzDvmvFKa9IZMvSqe-58" target="ToluzDvmvFKa9IZMvSqe-56" edge="1">
          <mxGeometry relative="1" as="geometry">
            <mxPoint x="350" y="1030" as="sourcePoint" />
            <mxPoint x="350" y="1070" as="targetPoint" />
          </mxGeometry>
        </mxCell>
        <mxCell id="ToluzDvmvFKa9IZMvSqe-66" style="edgeStyle=orthogonalEdgeStyle;rounded=0;orthogonalLoop=1;jettySize=auto;html=1;endArrow=none;endFill=0;" parent="WIyWlLk6GJQsqaUBKTNV-1" source="ToluzDvmvFKa9IZMvSqe-60" edge="1">
          <mxGeometry relative="1" as="geometry">
            <mxPoint x="340" y="1290" as="targetPoint" />
          </mxGeometry>
        </mxCell>
        <mxCell id="ToluzDvmvFKa9IZMvSqe-60" value="С(16):=1" style="rounded=0;whiteSpace=wrap;html=1;fontStyle=0" parent="WIyWlLk6GJQsqaUBKTNV-1" vertex="1">
          <mxGeometry x="270" y="1180" width="140" height="40" as="geometry" />
        </mxCell>
        <mxCell id="ToluzDvmvFKa9IZMvSqe-72" value="" style="endArrow=none;html=1;rounded=0;" parent="WIyWlLk6GJQsqaUBKTNV-1" edge="1">
          <mxGeometry width="50" height="50" relative="1" as="geometry">
            <mxPoint x="281.02000000000004" y="1310" as="sourcePoint" />
            <mxPoint x="401.02000000000004" y="1310" as="targetPoint" />
          </mxGeometry>
        </mxCell>
        <mxCell id="ToluzDvmvFKa9IZMvSqe-73" value="" style="endArrow=none;html=1;rounded=0;" parent="WIyWlLk6GJQsqaUBKTNV-1" edge="1">
          <mxGeometry width="50" height="50" relative="1" as="geometry">
            <mxPoint x="281.02000000000004" y="1290" as="sourcePoint" />
            <mxPoint x="401.02000000000004" y="1290" as="targetPoint" />
          </mxGeometry>
        </mxCell>
        <mxCell id="ToluzDvmvFKa9IZMvSqe-74" value="" style="endArrow=none;html=1;rounded=0;edgeStyle=orthogonalEdgeStyle;curved=1;" parent="WIyWlLk6GJQsqaUBKTNV-1" edge="1">
          <mxGeometry width="50" height="50" relative="1" as="geometry">
            <mxPoint x="401.02000000000004" y="1310" as="sourcePoint" />
            <mxPoint x="401.02000000000004" y="1290" as="targetPoint" />
            <Array as="points">
              <mxPoint x="411.02000000000004" y="1310" />
              <mxPoint x="411.02000000000004" y="1290" />
            </Array>
          </mxGeometry>
        </mxCell>
        <mxCell id="ToluzDvmvFKa9IZMvSqe-75" value="" style="endArrow=none;html=1;rounded=0;edgeStyle=orthogonalEdgeStyle;curved=1;" parent="WIyWlLk6GJQsqaUBKTNV-1" edge="1">
          <mxGeometry width="50" height="50" relative="1" as="geometry">
            <mxPoint x="281.02000000000004" y="1310" as="sourcePoint" />
            <mxPoint x="281.02000000000004" y="1290" as="targetPoint" />
            <Array as="points">
              <mxPoint x="271.02000000000004" y="1310" />
              <mxPoint x="271.02000000000004" y="1290" />
            </Array>
          </mxGeometry>
        </mxCell>
        <mxCell id="ToluzDvmvFKa9IZMvSqe-76" value="конец" style="text;html=1;align=center;verticalAlign=middle;resizable=0;points=[];autosize=1;strokeColor=none;fillColor=none;" parent="WIyWlLk6GJQsqaUBKTNV-1" vertex="1">
          <mxGeometry x="311.02000000000004" y="1284" width="60" height="30" as="geometry" />
        </mxCell>
        <mxCell id="ToluzDvmvFKa9IZMvSqe-77" value="1" style="text;html=1;align=center;verticalAlign=middle;whiteSpace=wrap;rounded=0;" parent="WIyWlLk6GJQsqaUBKTNV-1" vertex="1">
          <mxGeometry x="257" y="210" width="33" height="11" as="geometry" />
        </mxCell>
        <mxCell id="ToluzDvmvFKa9IZMvSqe-78" value="1" style="text;html=1;align=center;verticalAlign=middle;whiteSpace=wrap;rounded=0;" parent="WIyWlLk6GJQsqaUBKTNV-1" vertex="1">
          <mxGeometry x="395" y="146" width="26.02" height="15" as="geometry" />
        </mxCell>
        <mxCell id="ToluzDvmvFKa9IZMvSqe-79" value="1" style="text;html=1;align=center;verticalAlign=middle;whiteSpace=wrap;rounded=0;" parent="WIyWlLk6GJQsqaUBKTNV-1" vertex="1">
          <mxGeometry x="316" y="1151" width="60" height="30" as="geometry" />
        </mxCell>
        <mxCell id="ToluzDvmvFKa9IZMvSqe-80" value="0" style="text;html=1;align=center;verticalAlign=middle;whiteSpace=wrap;rounded=0;" parent="WIyWlLk6GJQsqaUBKTNV-1" vertex="1">
          <mxGeometry x="239" y="1117" width="60" height="30" as="geometry" />
        </mxCell>
        <mxCell id="ToluzDvmvFKa9IZMvSqe-84" style="edgeStyle=orthogonalEdgeStyle;rounded=0;orthogonalLoop=1;jettySize=auto;html=1;" parent="WIyWlLk6GJQsqaUBKTNV-1" source="ToluzDvmvFKa9IZMvSqe-81" edge="1">
          <mxGeometry relative="1" as="geometry">
            <mxPoint x="340" y="1260" as="targetPoint" />
            <Array as="points">
              <mxPoint x="560" y="1260" />
            </Array>
          </mxGeometry>
        </mxCell>
        <mxCell id="ToluzDvmvFKa9IZMvSqe-81" value="ПП:=1" style="rounded=0;whiteSpace=wrap;html=1;fontStyle=0" parent="WIyWlLk6GJQsqaUBKTNV-1" vertex="1">
          <mxGeometry x="490" y="420" width="140" height="40" as="geometry" />
        </mxCell>
        <mxCell id="ToluzDvmvFKa9IZMvSqe-82" style="edgeStyle=orthogonalEdgeStyle;rounded=0;orthogonalLoop=1;jettySize=auto;html=1;entryX=0.5;entryY=0;entryDx=0;entryDy=0;exitX=1;exitY=0.5;exitDx=0;exitDy=0;" parent="WIyWlLk6GJQsqaUBKTNV-1" source="ToluzDvmvFKa9IZMvSqe-20" target="ToluzDvmvFKa9IZMvSqe-81" edge="1">
          <mxGeometry relative="1" as="geometry">
            <mxPoint x="409.9955319148932" y="161.00127659574466" as="sourcePoint" />
            <mxPoint x="570.07" y="560.0199999999998" as="targetPoint" />
          </mxGeometry>
        </mxCell>
        <mxCell id="ToluzDvmvFKa9IZMvSqe-87" style="edgeStyle=orthogonalEdgeStyle;rounded=0;orthogonalLoop=1;jettySize=auto;html=1;exitX=0.5;exitY=1;exitDx=0;exitDy=0;" parent="WIyWlLk6GJQsqaUBKTNV-1" source="ToluzDvmvFKa9IZMvSqe-85" edge="1">
          <mxGeometry relative="1" as="geometry">
            <mxPoint x="340" y="1250" as="targetPoint" />
            <mxPoint x="-20" y="470.0000000000002" as="sourcePoint" />
            <Array as="points">
              <mxPoint x="140" y="1250" />
            </Array>
          </mxGeometry>
        </mxCell>
        <mxCell id="ToluzDvmvFKa9IZMvSqe-85" value="С:=0" style="rounded=0;whiteSpace=wrap;html=1;fontStyle=0" parent="WIyWlLk6GJQsqaUBKTNV-1" vertex="1">
          <mxGeometry x="70" y="420" width="140" height="40" as="geometry" />
        </mxCell>
        <mxCell id="ToluzDvmvFKa9IZMvSqe-88" value="0" style="text;html=1;align=center;verticalAlign=middle;whiteSpace=wrap;rounded=0;" parent="WIyWlLk6GJQsqaUBKTNV-1" vertex="1">
          <mxGeometry x="240" y="904" width="60" height="30" as="geometry" />
        </mxCell>
        <mxCell id="ToluzDvmvFKa9IZMvSqe-89" value="1" style="text;html=1;align=center;verticalAlign=middle;whiteSpace=wrap;rounded=0;" parent="WIyWlLk6GJQsqaUBKTNV-1" vertex="1">
          <mxGeometry x="316" y="944" width="60" height="30" as="geometry" />
        </mxCell>
        <mxCell id="ToluzDvmvFKa9IZMvSqe-90" value="0" style="text;html=1;align=center;verticalAlign=middle;whiteSpace=wrap;rounded=0;" parent="WIyWlLk6GJQsqaUBKTNV-1" vertex="1">
          <mxGeometry x="242" y="971" width="60" height="30" as="geometry" />
        </mxCell>
        <mxCell id="ToluzDvmvFKa9IZMvSqe-91" value="1" style="text;html=1;align=center;verticalAlign=middle;whiteSpace=wrap;rounded=0;" parent="WIyWlLk6GJQsqaUBKTNV-1" vertex="1">
          <mxGeometry x="317" y="1011" width="60" height="30" as="geometry" />
        </mxCell>
        <mxCell id="OBWvNojTF76L5a2s2C03-0" value="" style="endArrow=none;html=1;rounded=0;strokeColor=#ff0000;" edge="1" parent="WIyWlLk6GJQsqaUBKTNV-1">
          <mxGeometry width="50" height="50" relative="1" as="geometry">
            <mxPoint x="320" y="20" as="sourcePoint" />
            <mxPoint x="360" y="20" as="targetPoint" />
          </mxGeometry>
        </mxCell>
        <mxCell id="OBWvNojTF76L5a2s2C03-1" value="" style="endArrow=none;html=1;rounded=0;strokeColor=#ff0000;" edge="1" parent="WIyWlLk6GJQsqaUBKTNV-1">
          <mxGeometry width="50" height="50" relative="1" as="geometry">
            <mxPoint x="319" y="141" as="sourcePoint" />
            <mxPoint x="359" y="141" as="targetPoint" />
          </mxGeometry>
        </mxCell>
        <mxCell id="OBWvNojTF76L5a2s2C03-2" value="" style="endArrow=none;html=1;rounded=0;strokeColor=#ff0000;" edge="1" parent="WIyWlLk6GJQsqaUBKTNV-1">
          <mxGeometry width="50" height="50" relative="1" as="geometry">
            <mxPoint x="320" y="340" as="sourcePoint" />
            <mxPoint x="360" y="340" as="targetPoint" />
          </mxGeometry>
        </mxCell>
        <mxCell id="OBWvNojTF76L5a2s2C03-3" value="" style="endArrow=none;html=1;rounded=0;strokeColor=#ff0000;" edge="1" parent="WIyWlLk6GJQsqaUBKTNV-1">
          <mxGeometry width="50" height="50" relative="1" as="geometry">
            <mxPoint x="320" y="480" as="sourcePoint" />
            <mxPoint x="360" y="480" as="targetPoint" />
          </mxGeometry>
        </mxCell>
        <mxCell id="OBWvNojTF76L5a2s2C03-4" value="" style="endArrow=none;html=1;rounded=0;strokeColor=#ff0000;" edge="1" parent="WIyWlLk6GJQsqaUBKTNV-1">
          <mxGeometry width="50" height="50" relative="1" as="geometry">
            <mxPoint x="320" y="621" as="sourcePoint" />
            <mxPoint x="360" y="621" as="targetPoint" />
          </mxGeometry>
        </mxCell>
        <mxCell id="OBWvNojTF76L5a2s2C03-5" value="" style="endArrow=none;html=1;rounded=0;strokeColor=#ff0000;" edge="1" parent="WIyWlLk6GJQsqaUBKTNV-1">
          <mxGeometry width="50" height="50" relative="1" as="geometry">
            <mxPoint x="320" y="830" as="sourcePoint" />
            <mxPoint x="360" y="830" as="targetPoint" />
          </mxGeometry>
        </mxCell>
        <mxCell id="OBWvNojTF76L5a2s2C03-6" value="" style="endArrow=none;html=1;rounded=0;strokeColor=#ff0000;" edge="1" parent="WIyWlLk6GJQsqaUBKTNV-1">
          <mxGeometry width="50" height="50" relative="1" as="geometry">
            <mxPoint x="321" y="901" as="sourcePoint" />
            <mxPoint x="361" y="901" as="targetPoint" />
          </mxGeometry>
        </mxCell>
        <mxCell id="OBWvNojTF76L5a2s2C03-7" value="" style="endArrow=none;html=1;rounded=0;strokeColor=#ff0000;" edge="1" parent="WIyWlLk6GJQsqaUBKTNV-1">
          <mxGeometry width="50" height="50" relative="1" as="geometry">
            <mxPoint x="320" y="1095" as="sourcePoint" />
            <mxPoint x="360" y="1095" as="targetPoint" />
          </mxGeometry>
        </mxCell>
        <mxCell id="OBWvNojTF76L5a2s2C03-8" value="" style="endArrow=none;html=1;rounded=0;strokeColor=#ff0000;" edge="1" parent="WIyWlLk6GJQsqaUBKTNV-1">
          <mxGeometry width="50" height="50" relative="1" as="geometry">
            <mxPoint x="320" y="1280" as="sourcePoint" />
            <mxPoint x="360" y="1280" as="targetPoint" />
          </mxGeometry>
        </mxCell>
        <mxCell id="OBWvNojTF76L5a2s2C03-9" value="А0" style="text;html=1;align=center;verticalAlign=middle;whiteSpace=wrap;rounded=0;" vertex="1" parent="WIyWlLk6GJQsqaUBKTNV-1">
          <mxGeometry x="339" y="5" width="60" height="30" as="geometry" />
        </mxCell>
        <mxCell id="OBWvNojTF76L5a2s2C03-10" value="А1" style="text;html=1;align=center;verticalAlign=middle;whiteSpace=wrap;rounded=0;" vertex="1" parent="WIyWlLk6GJQsqaUBKTNV-1">
          <mxGeometry x="338" y="125" width="60" height="30" as="geometry" />
        </mxCell>
        <mxCell id="OBWvNojTF76L5a2s2C03-11" value="А2" style="text;html=1;align=center;verticalAlign=middle;whiteSpace=wrap;rounded=0;" vertex="1" parent="WIyWlLk6GJQsqaUBKTNV-1">
          <mxGeometry x="339" y="323" width="60" height="30" as="geometry" />
        </mxCell>
        <mxCell id="OBWvNojTF76L5a2s2C03-12" value="А3" style="text;html=1;align=center;verticalAlign=middle;whiteSpace=wrap;rounded=0;" vertex="1" parent="WIyWlLk6GJQsqaUBKTNV-1">
          <mxGeometry x="340" y="462" width="60" height="30" as="geometry" />
        </mxCell>
        <mxCell id="OBWvNojTF76L5a2s2C03-13" value="А5" style="text;html=1;align=center;verticalAlign=middle;whiteSpace=wrap;rounded=0;" vertex="1" parent="WIyWlLk6GJQsqaUBKTNV-1">
          <mxGeometry x="340" y="603" width="60" height="30" as="geometry" />
        </mxCell>
        <mxCell id="OBWvNojTF76L5a2s2C03-14" value="А6" style="text;html=1;align=center;verticalAlign=middle;whiteSpace=wrap;rounded=0;" vertex="1" parent="WIyWlLk6GJQsqaUBKTNV-1">
          <mxGeometry x="340" y="812" width="60" height="30" as="geometry" />
        </mxCell>
        <mxCell id="OBWvNojTF76L5a2s2C03-15" value="" style="endArrow=none;html=1;rounded=0;strokeColor=#ff0000;" edge="1" parent="WIyWlLk6GJQsqaUBKTNV-1">
          <mxGeometry width="50" height="50" relative="1" as="geometry">
            <mxPoint x="320" y="540" as="sourcePoint" />
            <mxPoint x="360" y="540" as="targetPoint" />
          </mxGeometry>
        </mxCell>
        <mxCell id="OBWvNojTF76L5a2s2C03-16" value="А4" style="text;html=1;align=center;verticalAlign=middle;whiteSpace=wrap;rounded=0;" vertex="1" parent="WIyWlLk6GJQsqaUBKTNV-1">
          <mxGeometry x="340" y="522" width="60" height="30" as="geometry" />
        </mxCell>
        <mxCell id="OBWvNojTF76L5a2s2C03-17" value="А7" style="text;html=1;align=center;verticalAlign=middle;whiteSpace=wrap;rounded=0;" vertex="1" parent="WIyWlLk6GJQsqaUBKTNV-1">
          <mxGeometry x="340" y="880" width="60" height="30" as="geometry" />
        </mxCell>
        <mxCell id="OBWvNojTF76L5a2s2C03-18" value="А8" style="text;html=1;align=center;verticalAlign=middle;whiteSpace=wrap;rounded=0;" vertex="1" parent="WIyWlLk6GJQsqaUBKTNV-1">
          <mxGeometry x="339" y="1076" width="60" height="30" as="geometry" />
        </mxCell>
        <mxCell id="OBWvNojTF76L5a2s2C03-19" value="А0" style="text;html=1;align=center;verticalAlign=middle;whiteSpace=wrap;rounded=0;" vertex="1" parent="WIyWlLk6GJQsqaUBKTNV-1">
          <mxGeometry x="340" y="1261" width="60" height="30" as="geometry" />
        </mxCell>
        <mxCell id="OBWvNojTF76L5a2s2C03-20" value="Х0" style="text;html=1;align=center;verticalAlign=middle;whiteSpace=wrap;rounded=0;fontColor=#0000CC;" vertex="1" parent="WIyWlLk6GJQsqaUBKTNV-1">
          <mxGeometry x="394" y="43" width="60" height="30" as="geometry" />
        </mxCell>
        <mxCell id="OBWvNojTF76L5a2s2C03-21" value="Х1" style="text;html=1;align=center;verticalAlign=middle;whiteSpace=wrap;rounded=0;fontColor=#0000CC;" vertex="1" parent="WIyWlLk6GJQsqaUBKTNV-1">
          <mxGeometry x="227" y="153" width="60" height="30" as="geometry" />
        </mxCell>
        <mxCell id="OBWvNojTF76L5a2s2C03-22" value="Х2" style="text;html=1;align=center;verticalAlign=middle;whiteSpace=wrap;rounded=0;fontColor=#0000CC;" vertex="1" parent="WIyWlLk6GJQsqaUBKTNV-1">
          <mxGeometry x="393" y="213" width="60" height="30" as="geometry" />
        </mxCell>
        <mxCell id="OBWvNojTF76L5a2s2C03-23" value="Х3" style="text;html=1;align=center;verticalAlign=middle;whiteSpace=wrap;rounded=0;fontColor=#0000CC;" vertex="1" parent="WIyWlLk6GJQsqaUBKTNV-1">
          <mxGeometry x="227" y="355" width="60" height="30" as="geometry" />
        </mxCell>
        <mxCell id="OBWvNojTF76L5a2s2C03-24" value="Х3" style="text;html=1;align=center;verticalAlign=middle;whiteSpace=wrap;rounded=0;fontColor=#0000CC;" vertex="1" parent="WIyWlLk6GJQsqaUBKTNV-1">
          <mxGeometry x="227" y="635" width="60" height="30" as="geometry" />
        </mxCell>
        <mxCell id="OBWvNojTF76L5a2s2C03-25" value="Х4" style="text;html=1;align=center;verticalAlign=middle;whiteSpace=wrap;rounded=0;fontColor=#0000CC;" vertex="1" parent="WIyWlLk6GJQsqaUBKTNV-1">
          <mxGeometry x="392" y="915" width="60" height="30" as="geometry" />
        </mxCell>
        <mxCell id="OBWvNojTF76L5a2s2C03-26" value="Х5" style="text;whiteSpace=wrap;html=1;fontColor=#0000CC;" vertex="1" parent="WIyWlLk6GJQsqaUBKTNV-1">
          <mxGeometry x="412" y="986" width="50" height="40" as="geometry" />
        </mxCell>
        <mxCell id="OBWvNojTF76L5a2s2C03-27" value="Х6" style="text;whiteSpace=wrap;html=1;fontColor=#0000CC;" vertex="1" parent="WIyWlLk6GJQsqaUBKTNV-1">
          <mxGeometry x="413" y="1126" width="50" height="40" as="geometry" />
        </mxCell>
        <mxCell id="OBWvNojTF76L5a2s2C03-28" value="y0&lt;br&gt;y1&lt;br&gt;y2&lt;br&gt;y3&lt;br&gt;y4" style="text;html=1;align=center;verticalAlign=middle;whiteSpace=wrap;rounded=0;" vertex="1" parent="WIyWlLk6GJQsqaUBKTNV-1">
          <mxGeometry x="228" y="96" width="60" height="30" as="geometry" />
        </mxCell>
        <mxCell id="OBWvNojTF76L5a2s2C03-29" value="y7" style="text;html=1;align=center;verticalAlign=middle;whiteSpace=wrap;rounded=0;" vertex="1" parent="WIyWlLk6GJQsqaUBKTNV-1">
          <mxGeometry x="392" y="285" width="60" height="30" as="geometry" />
        </mxCell>
        <mxCell id="OBWvNojTF76L5a2s2C03-30" value="y5" style="text;html=1;align=center;verticalAlign=middle;whiteSpace=wrap;rounded=0;" vertex="1" parent="WIyWlLk6GJQsqaUBKTNV-1">
          <mxGeometry x="190" y="424" width="60" height="30" as="geometry" />
        </mxCell>
        <mxCell id="OBWvNojTF76L5a2s2C03-31" value="y8" style="text;html=1;align=center;verticalAlign=middle;whiteSpace=wrap;rounded=0;" vertex="1" parent="WIyWlLk6GJQsqaUBKTNV-1">
          <mxGeometry x="395" y="424" width="60" height="30" as="geometry" />
        </mxCell>
        <mxCell id="OBWvNojTF76L5a2s2C03-32" value="y6" style="text;html=1;align=center;verticalAlign=middle;whiteSpace=wrap;rounded=0;" vertex="1" parent="WIyWlLk6GJQsqaUBKTNV-1">
          <mxGeometry x="611" y="423" width="60" height="30" as="geometry" />
        </mxCell>
        <mxCell id="OBWvNojTF76L5a2s2C03-33" value="y5&lt;br&gt;y9&lt;br&gt;y10&lt;br&gt;y11" style="text;html=1;align=center;verticalAlign=middle;whiteSpace=wrap;rounded=0;" vertex="1" parent="WIyWlLk6GJQsqaUBKTNV-1">
          <mxGeometry x="227" y="493" width="60" height="30" as="geometry" />
        </mxCell>
        <mxCell id="OBWvNojTF76L5a2s2C03-34" value="y7" style="text;html=1;align=center;verticalAlign=middle;whiteSpace=wrap;rounded=0;" vertex="1" parent="WIyWlLk6GJQsqaUBKTNV-1">
          <mxGeometry x="395" y="570" width="60" height="30" as="geometry" />
        </mxCell>
        <mxCell id="OBWvNojTF76L5a2s2C03-35" value="y7" style="text;html=1;align=center;verticalAlign=middle;whiteSpace=wrap;rounded=0;" vertex="1" parent="WIyWlLk6GJQsqaUBKTNV-1">
          <mxGeometry x="227" y="695" width="60" height="30" as="geometry" />
        </mxCell>
      </root>
    </mxGraphModel>
  </diagram>
</mxfile>
